<svg xmlns="http://www.w3.org/2000/svg" x="0px" y="0px" width="100" height="100" viewBox="0 0 48 48">
<defs><linearGradient id="6ZRjlfbEgFMWamXCgMmknk_9voIMmZZnnJd_gr1" x1="24" x2="24" y1="-1.82" y2="42.55" gradientUnits="userSpaceOnUse"><stop offset="0" stop-color="#f8f7fb"></stop><stop offset=".55" stop-color="#cccce0"></stop><stop offset=".97" stop-color="#b1c1da"></stop></linearGradient><linearGradient id="6ZRjlfbEgFMWamXCgMmknl_9voIMmZZnnJd_gr2" x1="24" x2="24" y1="-1.76" y2="42.15" gradientUnits="userSpaceOnUse"><stop offset="0" stop-color="#f7f5fa"></stop><stop offset=".55" stop-color="#c1c1d9"></stop><stop offset=".97" stop-color="#a0b3d2"></stop></linearGradient><linearGradient id="6ZRjlfbEgFMWamXCgMmknm_9voIMmZZnnJd_gr3" x1="24" x2="24" y1="-1.69" y2="41.74" gradientUnits="userSpaceOnUse"><stop offset="0" stop-color="#f5f4f9"></stop><stop offset=".55" stop-color="#b5b6d2"></stop><stop offset=".97" stop-color="#8ea6ca"></stop></linearGradient><linearGradient id="6ZRjlfbEgFMWamXCgMmknn_9voIMmZZnnJd_gr4" x1="24" x2="24" y1="-1.6" y2="41.34" gradientUnits="userSpaceOnUse"><stop offset="0" stop-color="#f4f2f8"></stop><stop offset=".55" stop-color="#aaaacb"></stop><stop offset=".97" stop-color="#7d98c2"></stop></linearGradient><linearGradient id="6ZRjlfbEgFMWamXCgMmkno_9voIMmZZnnJd_gr5" x1="24" x2="24" y1="-1.5" y2="40.94" gradientUnits="userSpaceOnUse"><stop offset="0" stop-color="#f2f0f7"></stop><stop offset=".55" stop-color="#9e9fc4"></stop><stop offset=".97" stop-color="#6b8aba"></stop></linearGradient><linearGradient id="6ZRjlfbEgFMWamXCgMmknp_9voIMmZZnnJd_gr6" x1="24" x2="24" y1="-1.38" y2="40.55" gradientUnits="userSpaceOnUse"><stop offset="0" stop-color="#f1eff6"></stop><stop offset=".55" stop-color="#9394bd"></stop><stop offset=".97" stop-color="#5a7db1"></stop></linearGradient><linearGradient id="6ZRjlfbEgFMWamXCgMmknq_9voIMmZZnnJd_gr7" x1="24" x2="24" y1="-1.24" y2="40.16" gradientUnits="userSpaceOnUse"><stop offset="0" stop-color="#efedf5"></stop><stop offset=".55" stop-color="#8789b6"></stop><stop offset=".97" stop-color="#486fa9"></stop></linearGradient><linearGradient id="6ZRjlfbEgFMWamXCgMmknr_9voIMmZZnnJd_gr8" x1="24" x2="24" y1="-1.09" y2="39.76" gradientUnits="userSpaceOnUse"><stop offset="0" stop-color="#eeebf4"></stop><stop offset=".55" stop-color="#7c7daf"></stop><stop offset=".97" stop-color="#3761a1"></stop></linearGradient><linearGradient id="6ZRjlfbEgFMWamXCgMmkns_9voIMmZZnnJd_gr9" x1="24" x2="24" y1="-.92" y2="39.37" gradientUnits="userSpaceOnUse"><stop offset="0" stop-color="#eceaf3"></stop><stop offset=".55" stop-color="#7072a8"></stop><stop offset=".97" stop-color="#255499"></stop></linearGradient><linearGradient id="6ZRjlfbEgFMWamXCgMmknt_9voIMmZZnnJd_gr10" x1="24" x2="24" y1="-.74" y2="38.99" gradientUnits="userSpaceOnUse"><stop offset="0" stop-color="#ebe8f2"></stop><stop offset=".55" stop-color="#6567a1"></stop><stop offset=".97" stop-color="#144691"></stop></linearGradient><linearGradient id="6ZRjlfbEgFMWamXCgMmkna_9voIMmZZnnJd_gr11" x1="28.5" x2="28.5" y1="18.19" y2="33.83" gradientUnits="userSpaceOnUse"><stop offset="0" stop-color="#f7faff"></stop><stop offset="1" stop-color="#d7ddfd"></stop></linearGradient><linearGradient id="6ZRjlfbEgFMWamXCgMmknb_9voIMmZZnnJd_gr12" x1="28.47" x2="28.47" y1="18.08" y2="33.8" gradientUnits="userSpaceOnUse"><stop offset="0" stop-color="#f5f9ff"></stop><stop offset="1" stop-color="#ced6fd"></stop></linearGradient><linearGradient id="6ZRjlfbEgFMWamXCgMmknc_9voIMmZZnnJd_gr13" x1="28.44" x2="28.44" y1="17.96" y2="33.76" gradientUnits="userSpaceOnUse"><stop offset="0" stop-color="#f3f8ff"></stop><stop offset="1" stop-color="#c5cefc"></stop></linearGradient><linearGradient id="6ZRjlfbEgFMWamXCgMmknd_9voIMmZZnnJd_gr14" x1="28.4" x2="28.4" y1="17.86" y2="33.73" gradientUnits="userSpaceOnUse"><stop offset="0" stop-color="#f2f6ff"></stop><stop offset="1" stop-color="#bcc7fc"></stop></linearGradient><linearGradient id="6ZRjlfbEgFMWamXCgMmkne_9voIMmZZnnJd_gr15" x1="28.37" x2="28.37" y1="17.75" y2="33.69" gradientUnits="userSpaceOnUse"><stop offset="0" stop-color="#f0f5ff"></stop><stop offset="1" stop-color="#b3bffc"></stop></linearGradient><linearGradient id="6ZRjlfbEgFMWamXCgMmknf_9voIMmZZnnJd_gr16" x1="28.34" x2="28.34" y1="17.65" y2="33.64" gradientUnits="userSpaceOnUse"><stop offset="0" stop-color="#eef4fe"></stop><stop offset="1" stop-color="#abb8fb"></stop></linearGradient><linearGradient id="6ZRjlfbEgFMWamXCgMmkng_9voIMmZZnnJd_gr17" x1="28.31" x2="28.31" y1="17.55" y2="33.6" gradientUnits="userSpaceOnUse"><stop offset="0" stop-color="#ecf3fe"></stop><stop offset="1" stop-color="#a2b0fb"></stop></linearGradient><linearGradient id="6ZRjlfbEgFMWamXCgMmknh_9voIMmZZnnJd_gr18" x1="28.27" x2="28.27" y1="17.45" y2="33.55" gradientUnits="userSpaceOnUse"><stop offset="0" stop-color="#ebf1fe"></stop><stop offset="1" stop-color="#99a9fb"></stop></linearGradient><linearGradient id="6ZRjlfbEgFMWamXCgMmkni_9voIMmZZnnJd_gr19" x1="28.24" x2="28.24" y1="17.35" y2="33.5" gradientUnits="userSpaceOnUse"><stop offset="0" stop-color="#e9f0fe"></stop><stop offset="1" stop-color="#90a1fa"></stop></linearGradient><linearGradient id="6ZRjlfbEgFMWamXCgMmknj_9voIMmZZnnJd_gr20" x1="28.21" x2="28.21" y1="17.26" y2="33.45" gradientUnits="userSpaceOnUse"><stop offset="0" stop-color="#e7effe"></stop><stop offset="1" stop-color="#879afa"></stop></linearGradient><linearGradient id="6ZRjlfbEgFMWamXCgMmknu_9voIMmZZnnJd_gr21" x1="18.45" x2="18.45" y2="33.83" xlink:href="#6ZRjlfbEgFMWamXCgMmkna"></linearGradient><linearGradient id="6ZRjlfbEgFMWamXCgMmknv_9voIMmZZnnJd_gr22" x1="18.48" x2="18.48" y1="18.07" y2="33.79" xlink:href="#6ZRjlfbEgFMWamXCgMmknb"></linearGradient><linearGradient id="6ZRjlfbEgFMWamXCgMmknw_9voIMmZZnnJd_gr23" x1="18.51" x2="18.51" y1="17.95" y2="33.75" xlink:href="#6ZRjlfbEgFMWamXCgMmknc"></linearGradient><linearGradient id="6ZRjlfbEgFMWamXCgMmknx_9voIMmZZnnJd_gr24" x1="18.54" x2="18.54" y1="17.84" y2="33.71" xlink:href="#6ZRjlfbEgFMWamXCgMmknd"></linearGradient><linearGradient id="6ZRjlfbEgFMWamXCgMmkny_9voIMmZZnnJd_gr25" x1="18.58" x2="18.58" y1="17.73" y2="33.67" xlink:href="#6ZRjlfbEgFMWamXCgMmkne"></linearGradient><linearGradient id="6ZRjlfbEgFMWamXCgMmknz_9voIMmZZnnJd_gr26" x1="18.61" x2="18.61" y1="17.63" y2="33.62" xlink:href="#6ZRjlfbEgFMWamXCgMmknf"></linearGradient><linearGradient id="6ZRjlfbEgFMWamXCgMmknA_9voIMmZZnnJd_gr27" x1="18.64" x2="18.64" y1="17.53" y2="33.58" xlink:href="#6ZRjlfbEgFMWamXCgMmkng"></linearGradient><linearGradient id="6ZRjlfbEgFMWamXCgMmknB_9voIMmZZnnJd_gr28" x1="18.67" x2="18.67" y1="17.43" y2="33.54" xlink:href="#6ZRjlfbEgFMWamXCgMmknh"></linearGradient><linearGradient id="6ZRjlfbEgFMWamXCgMmknC_9voIMmZZnnJd_gr29" x1="18.7" x2="18.7" y1="17.35" y2="33.5" xlink:href="#6ZRjlfbEgFMWamXCgMmkni"></linearGradient><linearGradient id="6ZRjlfbEgFMWamXCgMmknD_9voIMmZZnnJd_gr30" x1="18.74" x2="18.74" xlink:href="#6ZRjlfbEgFMWamXCgMmknj"></linearGradient><linearGradient id="6ZRjlfbEgFMWamXCgMmknE_9voIMmZZnnJd_gr31" x1="24.04" x2="24.04" y2="33.83" xlink:href="#6ZRjlfbEgFMWamXCgMmkna"></linearGradient><linearGradient id="6ZRjlfbEgFMWamXCgMmknF_9voIMmZZnnJd_gr32" x1="24.03" x2="24.03" y1="18.08" y2="33.79" xlink:href="#6ZRjlfbEgFMWamXCgMmknb"></linearGradient><linearGradient id="6ZRjlfbEgFMWamXCgMmknG_9voIMmZZnnJd_gr33" x1="24.01" x2="24.01" y1="17.97" y2="33.75" xlink:href="#6ZRjlfbEgFMWamXCgMmknc"></linearGradient><linearGradient id="6ZRjlfbEgFMWamXCgMmknH_9voIMmZZnnJd_gr34" x1="23.99" x2="23.99" y1="17.86" y2="33.71" xlink:href="#6ZRjlfbEgFMWamXCgMmknd"></linearGradient><linearGradient id="6ZRjlfbEgFMWamXCgMmknI_9voIMmZZnnJd_gr35" x1="23.98" x2="23.98" y1="17.76" y2="33.67" xlink:href="#6ZRjlfbEgFMWamXCgMmkne"></linearGradient><linearGradient id="6ZRjlfbEgFMWamXCgMmknJ_9voIMmZZnnJd_gr36" x1="23.96" x2="23.96" y1="17.65" y2="33.63" xlink:href="#6ZRjlfbEgFMWamXCgMmknf"></linearGradient><linearGradient id="6ZRjlfbEgFMWamXCgMmknK_9voIMmZZnnJd_gr37" x1="23.95" x2="23.95" y1="17.55" y2="33.58" xlink:href="#6ZRjlfbEgFMWamXCgMmkng"></linearGradient><linearGradient id="6ZRjlfbEgFMWamXCgMmknL_9voIMmZZnnJd_gr38" x1="23.93" x2="23.93" y1="17.45" y2="33.54" xlink:href="#6ZRjlfbEgFMWamXCgMmknh"></linearGradient><linearGradient id="6ZRjlfbEgFMWamXCgMmknM_9voIMmZZnnJd_gr39" x1="23.91" x2="23.91" y1="17.36" y2="33.5" xlink:href="#6ZRjlfbEgFMWamXCgMmkni"></linearGradient><linearGradient id="6ZRjlfbEgFMWamXCgMmknN_9voIMmZZnnJd_gr40" x1="23.9" x2="23.9" y2="33.45" xlink:href="#6ZRjlfbEgFMWamXCgMmknj"></linearGradient></defs><rect width="36" height="36" x="6" y="6" fill="url(#6ZRjlfbEgFMWamXCgMmknk_9voIMmZZnnJd_gr1)" rx="5" ry="5"></rect><rect width="35.33" height="35.33" x="6.33" y="6.33" fill="url(#6ZRjlfbEgFMWamXCgMmknl_9voIMmZZnnJd_gr2)" rx="4.67" ry="4.67"></rect><rect width="34.67" height="34.67" x="6.67" y="6.67" fill="url(#6ZRjlfbEgFMWamXCgMmknm_9voIMmZZnnJd_gr3)" rx="4.33" ry="4.33"></rect><rect width="34" height="34" x="7" y="7" fill="url(#6ZRjlfbEgFMWamXCgMmknn_9voIMmZZnnJd_gr4)" rx="4" ry="4"></rect><rect width="33.33" height="33.33" x="7.33" y="7.33" fill="url(#6ZRjlfbEgFMWamXCgMmkno_9voIMmZZnnJd_gr5)" rx="3.67" ry="3.67"></rect><rect width="32.67" height="32.67" x="7.67" y="7.67" fill="url(#6ZRjlfbEgFMWamXCgMmknp_9voIMmZZnnJd_gr6)" rx="3.33" ry="3.33"></rect><rect width="32" height="32" x="8" y="8" fill="url(#6ZRjlfbEgFMWamXCgMmknq_9voIMmZZnnJd_gr7)" rx="3" ry="3"></rect><rect width="31.33" height="31.33" x="8.33" y="8.33" fill="url(#6ZRjlfbEgFMWamXCgMmknr_9voIMmZZnnJd_gr8)" rx="2.67" ry="2.67"></rect><rect width="30.67" height="30.67" x="8.67" y="8.67" fill="url(#6ZRjlfbEgFMWamXCgMmkns_9voIMmZZnnJd_gr9)" rx="2.33" ry="2.33"></rect><rect width="30" height="30" x="9" y="9" fill="url(#6ZRjlfbEgFMWamXCgMmknt_9voIMmZZnnJd_gr10)" rx="2" ry="2"></rect><g><path fill="url(#6ZRjlfbEgFMWamXCgMmkna_9voIMmZZnnJd_gr11)" d="m25.2,23.19l7.66-8.88c.15-.17.11-.32-.04-.31h-1.61c-.08,0-.15.04-.2.1l-6.96,8.1,1.15.99Z"></path><path fill="url(#6ZRjlfbEgFMWamXCgMmknb_9voIMmZZnnJd_gr12)" d="m25.16,23.16l7.6-8.81c.14-.16.11-.29-.04-.29h-1.49c-.07,0-.14.04-.19.09l-6.95,8.08,1.07.92Z"></path><path fill="url(#6ZRjlfbEgFMWamXCgMmknc_9voIMmZZnnJd_gr13)" d="m25.12,23.12l7.54-8.75c.12-.14.1-.26-.04-.26h-1.37c-.07,0-.13.03-.18.09l-6.94,8.06.98.85Z"></path><path fill="url(#6ZRjlfbEgFMWamXCgMmknd_9voIMmZZnnJd_gr14)" d="m25.08,23.09l7.48-8.68c.11-.13.1-.23-.04-.23h-1.26c-.06,0-.12.03-.16.09l-6.92,8.04.9.78Z"></path><path fill="url(#6ZRjlfbEgFMWamXCgMmkne_9voIMmZZnnJd_gr15)" d="m25.03,23.05l7.42-8.61c.1-.11.09-.2-.04-.2h-1.14c-.06,0-.11.03-.15.08l-6.91,8.03.82.7Z"></path><path fill="url(#6ZRjlfbEgFMWamXCgMmknf_9voIMmZZnnJd_gr16)" d="m24.99,23.01l7.37-8.54c.09-.1.08-.18-.04-.17h-1.02c-.06,0-.09.03-.14.08l-6.9,8.01.73.63Z"></path><path fill="url(#6ZRjlfbEgFMWamXCgMmkng_9voIMmZZnnJd_gr17)" d="m24.95,22.98l7.31-8.48c.07-.08.08-.15-.04-.14h-.91c-.05,0-.08.02-.12.07l-6.89,7.99.65.56Z"></path><path fill="url(#6ZRjlfbEgFMWamXCgMmknh_9voIMmZZnnJd_gr18)" d="m24.91,22.94l7.25-8.41c.06-.07.07-.12-.04-.11h-.79s-.07.02-.11.07l-6.88,7.97.57.49Z"></path><path fill="url(#6ZRjlfbEgFMWamXCgMmkni_9voIMmZZnnJd_gr19)" d="m24.87,22.91l7.19-8.34c.05-.05.07-.09-.04-.08h-.67s-.06.02-.1.06l-6.87,7.95.48.42Z"></path><path fill="url(#6ZRjlfbEgFMWamXCgMmknj_9voIMmZZnnJd_gr20)" d="m24.83,22.87l7.14-8.28s.06-.06-.04-.06h-.56s-.05.02-.08.06l-6.86,7.93.4.34Z"></path></g><g><path fill="url(#6ZRjlfbEgFMWamXCgMmknu_9voIMmZZnnJd_gr21)" d="m21.75,24.81l-7.66,8.88c-.15.17-.11.32.04.31h1.61c.08,0,.15-.04.2-.1l6.96-8.1-1.15-.99Z"></path><path fill="url(#6ZRjlfbEgFMWamXCgMmknv_9voIMmZZnnJd_gr22)" d="m21.79,24.84l-7.6,8.81c-.14.16-.11.29.04.29h1.49c.07,0,.14-.04.19-.09l6.95-8.08-1.07-.92Z"></path><path fill="url(#6ZRjlfbEgFMWamXCgMmknw_9voIMmZZnnJd_gr23)" d="m21.83,24.88l-7.54,8.75c-.12.14-.1.26.04.26h1.37c.07,0,.13-.03.18-.09l6.94-8.06-.98-.85Z"></path><path fill="url(#6ZRjlfbEgFMWamXCgMmknx_9voIMmZZnnJd_gr24)" d="m21.87,24.91l-7.48,8.68c-.11.13-.1.23.04.23h1.26c.06,0,.12-.03.16-.09l6.92-8.04-.9-.78Z"></path><path fill="url(#6ZRjlfbEgFMWamXCgMmkny_9voIMmZZnnJd_gr25)" d="m21.91,24.95l-7.42,8.61c-.1.11-.09.2.04.2h1.14c.06,0,.11-.03.15-.08l6.91-8.03-.82-.7Z"></path><path fill="url(#6ZRjlfbEgFMWamXCgMmknz_9voIMmZZnnJd_gr26)" d="m21.95,24.99l-7.37,8.54c-.09.1-.08.18.04.17h1.02c.06,0,.09-.03.14-.08l6.9-8.01-.73-.63Z"></path><path fill="url(#6ZRjlfbEgFMWamXCgMmknA_9voIMmZZnnJd_gr27)" d="m21.99,25.02l-7.31,8.48c-.07.08-.08.15.04.14h.91c.05,0,.08-.02.12-.07l6.89-7.99-.65-.56Z"></path><path fill="url(#6ZRjlfbEgFMWamXCgMmknB_9voIMmZZnnJd_gr28)" d="m22.04,25.06l-7.25,8.41c-.06.07-.07.12.04.11h.79s.07-.02.11-.07l6.88-7.97-.57-.49Z"></path><path fill="url(#6ZRjlfbEgFMWamXCgMmknC_9voIMmZZnnJd_gr29)" d="m22.08,25.09l-7.19,8.34c-.05.05-.07.09.04.08h.67s.06-.02.1-.06l6.87-7.95-.48-.42Z"></path><path fill="url(#6ZRjlfbEgFMWamXCgMmknD_9voIMmZZnnJd_gr30)" d="m22.12,25.13l-7.14,8.28s-.06.06.04.06h.56s.05-.02.08-.06l6.86-7.93-.4-.34Z"></path></g><g><path fill="url(#6ZRjlfbEgFMWamXCgMmknE_9voIMmZZnnJd_gr31)" d="m28.61,32.3h2.45s.06-.04.04-.07l-11.58-16.51s-.03-.02-.05-.02h-2.42s-.07.05-.05.09l11.57,16.5s.02.02.04.02Zm4.69,1.7h-5.22c-.16,0-.32-.08-.41-.21L14.38,14.79c-.23-.33,0-.79.41-.79h5.22c.16,0,.32.08.41.21l13.29,19c.23.33,0,.79-.41.79Z"></path><path fill="url(#6ZRjlfbEgFMWamXCgMmknF_9voIMmZZnnJd_gr32)" d="m28.62,32.36h2.46c.08,0,.12-.09.08-.15l-11.58-16.53s-.06-.05-.09-.05h-2.43c-.1,0-.16.12-.1.2l11.6,16.49s.05.04.08.04Zm4.63,1.56h-5.15c-.15,0-.29-.07-.38-.2L14.43,14.77c-.21-.3,0-.71.37-.71h5.21c.15,0,.29.07.38.2l13.23,18.94c.21.3,0,.71-.37.71Z"></path><path fill="url(#6ZRjlfbEgFMWamXCgMmknG_9voIMmZZnnJd_gr33)" d="m28.63,32.42h2.47c.11,0,.18-.13.12-.22l-11.57-16.56s-.08-.07-.14-.07h-2.45c-.16,0-.25.18-.16.31l11.62,16.49s.07.06.12.06Zm4.58,1.43h-5.09c-.14,0-.26-.07-.34-.18L14.48,14.76c-.18-.26,0-.63.33-.63h5.21c.14,0,.27.07.35.18l13.18,18.89c.19.27,0,.64-.33.64Z"></path><path fill="url(#6ZRjlfbEgFMWamXCgMmknH_9voIMmZZnnJd_gr34)" d="m28.63,32.47h2.47c.15,0,.24-.17.16-.3l-11.57-16.58c-.04-.06-.11-.1-.19-.1h-2.46c-.21,0-.34.24-.21.41l11.64,16.48c.04.05.1.08.16.08Zm4.53,1.3h-5.03c-.12,0-.24-.06-.31-.16L14.53,14.75c-.16-.23,0-.55.28-.55h5.21c.13,0,.25.06.32.17l13.12,18.83c.17.24,0,.57-.3.57Z"></path><path fill="url(#6ZRjlfbEgFMWamXCgMmknI_9voIMmZZnnJd_gr35)" d="m28.64,32.53h2.48c.19,0,.3-.21.19-.37l-11.57-16.61c-.05-.08-.14-.12-.23-.12h-2.47c-.27,0-.42.3-.27.52l11.66,16.47c.05.06.12.1.2.1Zm4.47,1.16h-4.97c-.11,0-.21-.05-.27-.14L14.58,14.73c-.14-.2,0-.47.24-.47h5.21c.11,0,.22.06.29.15l13.06,18.78c.15.21,0,.5-.26.5Z"></path><path fill="url(#6ZRjlfbEgFMWamXCgMmknJ_9voIMmZZnnJd_gr36)" d="m28.65,32.58h2.49c.23,0,.36-.26.23-.44l-11.56-16.63c-.06-.09-.17-.15-.28-.15h-2.48c-.32,0-.51.37-.32.63l11.68,16.47c.05.08.14.12.24.12Zm4.42,1.03h-4.9c-.1,0-.18-.05-.24-.12L14.63,14.72c-.11-.16,0-.39.2-.39h5.2c.1,0,.2.05.26.13l13,18.72c.13.18,0,.43-.22.43Z"></path><path fill="url(#6ZRjlfbEgFMWamXCgMmknK_9voIMmZZnnJd_gr37)" d="m28.66,32.64h2.5c.27,0,.42-.3.27-.52l-11.56-16.66c-.07-.11-.19-.17-.32-.17h-2.49c-.38,0-.6.43-.38.74l11.71,16.46c.06.09.17.14.28.14Zm4.37.9h-4.84c-.08,0-.16-.04-.2-.11L14.68,14.7c-.09-.13,0-.31.16-.31h5.2c.09,0,.18.04.23.12l12.94,18.67c.1.15,0,.35-.18.35Z"></path><path fill="url(#6ZRjlfbEgFMWamXCgMmknL_9voIMmZZnnJd_gr38)" d="m28.67,32.7h2.5c.31,0,.48-.34.31-.59l-11.55-16.68c-.08-.12-.22-.19-.37-.19h-2.51c-.43,0-.69.49-.43.85l11.73,16.46c.07.1.19.16.32.16Zm4.31.77h-4.78c-.07,0-.13-.03-.17-.09L14.73,14.69c-.07-.09,0-.23.12-.23h5.2c.08,0,.15.04.2.1l12.89,18.61c.08.12,0,.28-.15.28Z"></path><path fill="url(#6ZRjlfbEgFMWamXCgMmknM_9voIMmZZnnJd_gr39)" d="m28.67,32.75h2.51c.34,0,.55-.39.35-.67l-11.55-16.7c-.09-.14-.25-.22-.41-.22h-2.52c-.49,0-.78.55-.49.95l11.75,16.45c.08.12.22.18.36.18Zm4.26.63h-4.71c-.05,0-.11-.03-.14-.07L14.78,14.68c-.04-.06,0-.15.08-.15h5.2c.07,0,.13.03.17.09l12.83,18.56c.06.09,0,.21-.11.21Z"></path><path fill="url(#6ZRjlfbEgFMWamXCgMmknN_9voIMmZZnnJd_gr40)" d="m28.68,32.81h2.52c.38,0,.61-.43.39-.74l-11.55-16.73c-.1-.15-.28-.24-.46-.24h-2.53c-.55,0-.86.62-.55,1.06l11.77,16.45c.09.13.24.2.4.2Zm4.21.5h-4.65s-.08-.02-.1-.05L14.83,14.66s0-.07.03-.07h5.19c.05,0,.11.03.14.07l12.77,18.5c.04.06,0,.14-.07.14Z"></path></g>
</svg>